<?xml version="1.0" encoding="UTF-8"?>
<svg id="Layer_2" data-name="Layer 2" xmlns="http://www.w3.org/2000/svg" viewBox="0 0 1793.108 364.287">
  <defs>
    <style>
      .cls-1 {
        fill: #fffcf8;
      }
    </style>
  </defs>
  <g id="Layer_1-2" data-name="Layer 1">
    <g>
      <path class="cls-1" d="M298.865,64.329c-15.192-15.654-33.671-28.108-54.923-37.016-21.26-8.909-44.855-13.426-70.132-13.426s-48.878,4.517-70.132,13.426c-21.259,8.907-39.737,21.361-54.922,37.016-15.171,15.641-27.218,34.343-35.809,55.587C4.356,141.155,0,164.428,0,189.088s4.356,47.94,12.948,69.171c8.591,21.253,20.639,39.955,35.809,55.587,15.173,15.649,33.651,28.104,54.921,37.017,21.254,8.908,44.85,13.425,70.133,13.425s48.873-4.517,70.133-13.425c21.262-8.913,39.74-21.367,54.922-37.016,15.164-15.633,27.211-34.335,35.809-55.587,8.592-21.249,12.948-44.521,12.948-69.172s-4.356-47.915-12.948-69.172c-8.598-21.244-20.645-39.946-35.809-55.587ZM261.407,279.173c-10.476,11.374-23.236,20.563-37.929,27.312-14.659,6.73-31.37,10.143-49.668,10.143s-35.016-3.412-49.667-10.143c-14.698-6.747-27.459-15.937-37.93-27.312-10.49-11.383-18.696-24.986-24.389-40.436-5.713-15.478-8.609-32.182-8.609-49.648s2.896-34.165,8.609-49.649c5.693-15.443,13.899-29.048,24.39-40.436,10.481-11.381,23.243-20.569,37.929-27.312,14.651-6.73,31.362-10.143,49.667-10.143s35.009,3.412,49.668,10.143c14.68,6.742,27.441,15.932,37.929,27.312,10.481,11.386,18.688,24.991,24.39,40.435,5.713,15.504,8.609,32.208,8.609,49.65s-2.896,34.153-8.609,49.649c-5.7,15.449-13.906,29.054-24.39,40.436Z"/>
      <path class="cls-1" d="M542.053,246.488c0,12.256-1.506,22.995-4.475,31.916-2.941,8.814-7.086,16.158-12.319,21.828-5.21,5.644-11.364,9.821-18.292,12.42-7.033,2.638-14.777,3.975-23.018,3.975-6.142,0-12.129-.961-17.8-2.856-5.56-1.851-10.55-4.889-14.834-9.032-4.287-4.14-7.783-9.692-10.392-16.505-2.633-6.87-3.968-15.309-3.968-25.081v-132.613h-47.661v144.186c0,14.838,2.255,27.91,6.7,38.854,4.467,11.012,10.554,20.17,18.088,27.215,7.522,7.051,16.377,12.332,26.316,15.697,9.827,3.33,20.43,5.019,31.515,5.019,17.403,0,33.003-3.788,46.365-11.259,10.15-5.675,18.113-12.779,23.773-21.19v26.895h47.661v-225.416h-47.661v115.949Z"/>
      <path class="cls-1" d="M760.291,315.284c-5.056.891-10.02,1.343-14.756,1.343-7.362,0-12.932-1.295-16.559-3.853-3.734-2.625-6.421-5.986-8.218-10.281-1.866-4.437-2.956-9.547-3.241-15.193-.306-5.895-.46-11.994-.46-18.13v-96.523h59.715v-42.107h-59.715v-61.566h-47.661v61.566h-48.142v42.107h48.142v111.336c0,9.018.394,18.062,1.169,26.878.801,9.195,3.429,17.64,7.808,25.097,4.441,7.572,11.396,13.802,20.67,18.517,9.189,4.669,22.184,7.036,38.623,7.036,4.481,0,10.596-.539,18.695-1.647,8.216-1.134,15.036-3.201,20.271-6.144l1.529-.86v-44.883l-4.489,2.566c-3.995,2.284-8.497,3.88-13.381,4.742Z"/>
      <polygon class="cls-1" points="1059.453 288.819 1005.799 130.539 957.021 130.539 906.272 288.797 858.675 130.539 805.546 130.539 879.733 355.955 928.525 355.955 979.896 197.047 1036.247 355.955 1082.674 355.955 1155.436 130.539 1104.611 130.539 1059.453 288.819"/>
      <rect class="cls-1" x="1189.368" y="130.539" width="47.661" height="225.416"/>
      <path class="cls-1" d="M1213.199,21.295c-9.119,0-17.075,3.332-23.646,9.904-6.572,6.572-9.905,14.528-9.905,23.646s3.333,17.074,9.905,23.646,14.528,9.905,23.646,9.905,17.073-3.333,23.646-9.905,9.905-14.528,9.905-23.646-3.333-17.074-9.905-23.646c-6.571-6.572-14.527-9.904-23.646-9.904Z"/>
      <path class="cls-1" d="M1408.853,315.284c-5.056.891-10.02,1.343-14.756,1.343-7.362,0-12.932-1.295-16.559-3.853-3.734-2.625-6.421-5.986-8.218-10.281-1.866-4.437-2.956-9.547-3.241-15.193-.306-5.895-.46-11.994-.46-18.13v-96.523h59.715v-42.107h-59.715v-61.566h-47.661v61.566h-48.142v42.107h48.142v111.336c0,9.018.394,18.062,1.169,26.878.801,9.195,3.429,17.64,7.808,25.097,4.441,7.572,11.396,13.802,20.67,18.517,9.189,4.669,22.184,7.036,38.623,7.036,4.481,0,10.596-.539,18.695-1.647,8.216-1.134,15.036-3.201,20.271-6.144l1.529-.86v-44.883l-4.489,2.566c-3.995,2.284-8.497,3.88-13.381,4.742Z"/>
      <path class="cls-1" d="M1643.473,145.698c-7.548-7.058-16.484-12.34-26.561-15.698-9.983-3.328-20.504-5.016-31.269-5.016-17.404,0-33.004,3.788-46.366,11.261-10.153,5.683-18.115,12.784-23.772,21.189V0h-47.661v355.955h47.661v-115.947c0-12.277,1.506-23.016,4.476-31.92,2.929-8.8,7.073-16.144,12.32-21.825,5.206-5.642,11.359-9.82,18.29-12.419,7.033-2.638,14.777-3.975,23.018-3.975,6.121,0,12.109.96,17.796,2.854,5.563,1.859,10.556,4.898,14.836,9.031,4.289,4.15,7.786,9.704,10.394,16.507,2.633,6.878,3.968,15.316,3.968,25.082v132.612h47.661v-144.186c0-14.819-2.254-27.892-6.701-38.855-4.468-10.997-10.553-20.152-18.089-27.216Z"/>
      <path class="cls-1" d="M1783.202,301.535c-6.572-6.572-14.528-9.905-23.646-9.905s-17.074,3.333-23.646,9.905-9.905,14.528-9.905,23.646,3.332,17.073,9.905,23.646c6.571,6.572,14.527,9.904,23.646,9.904s17.074-3.332,23.646-9.904c6.573-6.573,9.906-14.529,9.906-23.646s-3.333-17.074-9.906-23.646Z"/>
    </g>
  </g>
</svg>